<?xml version="1.0" encoding="UTF-8" standalone="no"?>
<!DOCTYPE svg PUBLIC "-//W3C//DTD SVG 1.1//EN" "http://www.w3.org/Graphics/SVG/1.1/DTD/svg11.dtd">
<svg width="100%" height="100%" viewBox="0 0 600 600" version="1.1" xmlns="http://www.w3.org/2000/svg" xmlns:xlink="http://www.w3.org/1999/xlink" xml:space="preserve" xmlns:serif="http://www.serif.com/" style="fill-rule:evenodd;clip-rule:evenodd;stroke-linejoin:round;stroke-miterlimit:2;">
    <g id="Cerolingo-bird" serif:id="Cerolingo bird" transform="matrix(0.544959,0,0,0.544959,21.2534,20.9809)">
        <path d="M1024,247.144L1024,776.856C1024,913.258 913.258,1024 776.856,1024L247.144,1024C110.742,1024 0,913.258 0,776.856L0,247.144C0,110.742 110.742,0 247.144,0L776.856,0C913.258,0 1024,110.742 1024,247.144Z" style="fill:rgb(104,119,255);"/>
        <clipPath id="_clip1">
            <path d="M1024,247.144L1024,776.856C1024,913.258 913.258,1024 776.856,1024L247.144,1024C110.742,1024 0,913.258 0,776.856L0,247.144C0,110.742 110.742,0 247.144,0L776.856,0C913.258,0 1024,110.742 1024,247.144Z"/>
        </clipPath>
        <g clip-path="url(#_clip1)">
            <g transform="matrix(0.978967,0,0,1.07198,21.5373,3.02297)">
                <path d="M1024,-42L1024,611L591.233,611L770.642,733.588L255.476,729.473L411.292,611L-22,611L-22,-42L1024,-42Z" style="fill:rgb(161,178,255);"/>
            </g>
        </g>
        <g>
            <g>
                <g transform="matrix(1.32225,0,0,1.15187,-128.913,-110.74)">
                    <ellipse cx="263.5" cy="541.5" rx="195.5" ry="253.5" style="fill:rgb(161,178,255);"/>
                </g>
                <g transform="matrix(1.32225,0,0,1.15187,455.087,-110.74)">
                    <ellipse cx="263.5" cy="541.5" rx="195.5" ry="253.5" style="fill:rgb(161,178,255);"/>
                </g>
            </g>
        </g>
        <g>
            <g transform="matrix(1.33108,0,0,1.25278,-19.25,-366.906)">
                <circle cx="185" cy="775" r="148" style="fill:rgb(152,99,187);"/>
            </g>
            <g transform="matrix(1.33108,0,0,1.25278,548.25,-366.906)">
                <circle cx="185" cy="775" r="148" style="fill:rgb(152,99,187);"/>
            </g>
        </g>
        <g>
            <g>
                <g transform="matrix(1.08725,0,0,1.03457,-17.6309,-7.40494)">
                    <path d="M374,457.587L374,549.413C374,635.836 307.235,706 225,706C142.765,706 76,635.836 76,549.413L76,457.587C76,371.164 142.765,301 225,301C307.235,301 374,371.164 374,457.587Z" style="fill:rgb(255,198,213);"/>
                </g>
                <g transform="matrix(1.08725,0,0,1.03457,549.869,-8.90494)">
                    <path d="M374,457.587L374,549.413C374,635.836 307.235,706 225,706C142.765,706 76,635.836 76,549.413L76,457.587C76,371.164 142.765,301 225,301C307.235,301 374,371.164 374,457.587Z" style="fill:rgb(255,198,213);"/>
                </g>
            </g>
            <g transform="matrix(1,0,0,1,567.5,-1.5)">
                <g transform="matrix(0.513415,0,0,0.580247,87.4817,222.346)">
                    <path d="M374,432.838L374,574.162C374,646.925 307.235,706 225,706C142.765,706 76,646.925 76,574.162L76,432.838C76,360.075 142.765,301 225,301C307.235,301 374,360.075 374,432.838Z" style="fill:rgb(75,75,75);"/>
                </g>
                <g transform="matrix(0.513415,0,0,0.580247,-431.018,223.846)">
                    <path d="M374,432.838L374,574.162C374,646.925 307.235,706 225,706C142.765,706 76,646.925 76,574.162L76,432.838C76,360.075 142.765,301 225,301C307.235,301 374,360.075 374,432.838Z" style="fill:rgb(75,75,75);"/>
                </g>
            </g>
            <g transform="matrix(1.08305,0,0,1.44037,-59.4017,-126.826)">
                <rect x="643" y="288" width="295" height="109" style="fill:rgb(161,178,255);"/>
            </g>
            <g transform="matrix(1.08305,0,0,1.44037,-627.402,-126.826)">
                <rect x="643" y="288" width="295" height="109" style="fill:rgb(161,178,255);"/>
            </g>
        </g>
        <g transform="matrix(1.835,0,0,1.835,245.5,-322.925)">
            <g transform="matrix(0.725385,0,0,0.682715,10.7629,-174.601)">
                <circle cx="185" cy="775" r="148" style="fill:rgb(152,99,187);"/>
            </g>
            <g transform="matrix(0.592506,0,0,0.563797,11.6453,16.9455)">
                <path d="M374,457.587L374,549.413C374,635.836 307.235,706 225,706C142.765,706 76,635.836 76,549.413L76,457.587C76,371.164 142.765,301 225,301C307.235,301 374,371.164 374,457.587Z" style="fill:rgb(255,198,213);"/>
                <clipPath id="_clip2">
                    <path d="M374,457.587L374,549.413C374,635.836 307.235,706 225,706C142.765,706 76,635.836 76,549.413L76,457.587C76,371.164 142.765,301 225,301C307.235,301 374,371.164 374,457.587Z"/>
                </clipPath>
                <g clip-path="url(#_clip2)">
                    <g transform="matrix(0.472215,0,0,0.560859,119.212,221.107)">
                        <path d="M374,432.838L374,574.162C374,646.925 307.235,706 225,706C142.765,706 76,646.925 76,574.162L76,432.838C76,360.075 142.765,301 225,301C307.235,301 374,360.075 374,432.838Z" style="fill:rgb(75,75,75);"/>
                    </g>
                </g>
            </g>
            <g transform="matrix(0.544959,0,0,0.544959,-288.283,47.139)">
                <g transform="matrix(1.08305,0,0,1.44037,-59.4017,-174.826)">
                    <rect x="643" y="288" width="295" height="109" style="fill:rgb(161,178,255);"/>
                </g>
                <g transform="matrix(1.97917,0,0,0.510417,-408.333,175.615)">
                    <path d="M704,469C704,521.984 692.906,565 679.242,565L536.758,565C523.094,565 512,521.984 512,469C512,416.016 523.094,373 536.758,373L679.242,373C692.906,373 704,416.016 704,469Z" style="fill:rgb(104,119,255);"/>
                </g>
            </g>
        </g>
        <g transform="matrix(1,0,0,1,7.31859e-13,48)">
            <g transform="matrix(1.97917,0,0,0.510417,-408.333,175.615)">
                <path d="M704,469C704,521.984 692.906,565 679.242,565L536.758,565C523.094,565 512,521.984 512,469C512,416.016 523.094,373 536.758,373L679.242,373C692.906,373 704,416.016 704,469Z" style="fill:rgb(104,119,255);"/>
            </g>
            <g transform="matrix(1.97917,0,0,0.510417,-976.333,175.615)">
                <path d="M704,469C704,521.984 692.906,565 679.242,565L536.758,565C523.094,565 512,521.984 512,469C512,416.016 523.094,373 536.758,373L679.242,373C692.906,373 704,416.016 704,469Z" style="fill:rgb(104,119,255);"/>
            </g>
        </g>
        <g transform="matrix(3.15054,0,0,1,-1107.38,85)">
            <path d="M607,689C607,740.328 593.773,782 577.481,782L450.519,782C434.227,782 421,740.328 421,689C421,637.672 434.227,596 450.519,596L577.481,596C593.773,596 607,637.672 607,689Z" style="fill:rgb(209,230,255);"/>
            <clipPath id="_clip3">
                <path d="M607,689C607,740.328 593.773,782 577.481,782L450.519,782C434.227,782 421,740.328 421,689C421,637.672 434.227,596 450.519,596L577.481,596C593.773,596 607,637.672 607,689Z"/>
            </clipPath>
            <g clip-path="url(#_clip3)">
                <g transform="matrix(0.62623,0,0,1,157.357,0)">
                    <g>
                        <g transform="matrix(0.486911,0,0,0.881517,223.314,38)">
                            <rect x="406" y="633" width="122" height="211" style="fill:rgb(141,190,255);"/>
                        </g>
                        <g transform="matrix(0.486911,0,0,0.881517,342.12,38)">
                            <rect x="406" y="633" width="122" height="211" style="fill:rgb(141,190,255);"/>
                        </g>
                        <g transform="matrix(0.486911,0,0,0.881517,460.927,38)">
                            <rect x="406" y="633" width="122" height="211" style="fill:rgb(141,190,255);"/>
                        </g>
                    </g>
                </g>
            </g>
        </g>
    </g>
</svg>
